<mxfile host="app.diagrams.net" modified="2022-07-18T21:28:22.659Z" agent="5.0 (Windows NT 10.0; Win64; x64) AppleWebKit/537.36 (KHTML, like Gecko) Chrome/103.0.5060.114 Safari/537.36 Edg/103.0.1264.62" etag="-jo1aL7rUenJyurORfuq" version="20.1.1" type="github">
  <diagram id="i6dDsYbBIXjPh8suPrJ-" name="Page-1">
    <mxGraphModel dx="1038" dy="529" grid="1" gridSize="10" guides="1" tooltips="1" connect="1" arrows="1" fold="1" page="1" pageScale="1" pageWidth="827" pageHeight="1169" math="0" shadow="0">
      <root>
        <mxCell id="0" />
        <mxCell id="1" parent="0" />
        <mxCell id="hlVVJkbPb0i9c_7va6b2-3" value="" style="edgeStyle=orthogonalEdgeStyle;rounded=0;orthogonalLoop=1;jettySize=auto;html=1;curved=1;entryX=0;entryY=0.5;entryDx=0;entryDy=0;exitX=1;exitY=0.5;exitDx=0;exitDy=0;" parent="1" source="hlVVJkbPb0i9c_7va6b2-1" target="hlVVJkbPb0i9c_7va6b2-2" edge="1">
          <mxGeometry relative="1" as="geometry">
            <mxPoint x="190" y="200" as="sourcePoint" />
          </mxGeometry>
        </mxCell>
        <mxCell id="hlVVJkbPb0i9c_7va6b2-5" value="" style="edgeStyle=orthogonalEdgeStyle;rounded=0;orthogonalLoop=1;jettySize=auto;html=1;curved=1;exitX=1;exitY=0.5;exitDx=0;exitDy=0;entryX=0;entryY=0.5;entryDx=0;entryDy=0;" parent="1" source="hlVVJkbPb0i9c_7va6b2-1" target="hlVVJkbPb0i9c_7va6b2-4" edge="1">
          <mxGeometry relative="1" as="geometry">
            <mxPoint x="190" y="200" as="sourcePoint" />
          </mxGeometry>
        </mxCell>
        <mxCell id="hlVVJkbPb0i9c_7va6b2-10" value="" style="edgeStyle=orthogonalEdgeStyle;curved=1;rounded=0;orthogonalLoop=1;jettySize=auto;html=1;entryX=0;entryY=0.5;entryDx=0;entryDy=0;exitX=1;exitY=0.5;exitDx=0;exitDy=0;" parent="1" source="hlVVJkbPb0i9c_7va6b2-1" target="hlVVJkbPb0i9c_7va6b2-9" edge="1">
          <mxGeometry relative="1" as="geometry">
            <mxPoint x="190" y="200" as="sourcePoint" />
          </mxGeometry>
        </mxCell>
        <mxCell id="hlVVJkbPb0i9c_7va6b2-1" value="Admin" style="ellipse;whiteSpace=wrap;html=1;fillColor=#dae8fc;strokeColor=#6c8ebf;" parent="1" vertex="1">
          <mxGeometry x="60" y="130" width="120" height="80" as="geometry" />
        </mxCell>
        <mxCell id="hlVVJkbPb0i9c_7va6b2-7" value="" style="edgeStyle=orthogonalEdgeStyle;curved=1;rounded=0;orthogonalLoop=1;jettySize=auto;html=1;" parent="1" source="hlVVJkbPb0i9c_7va6b2-2" target="hlVVJkbPb0i9c_7va6b2-6" edge="1">
          <mxGeometry relative="1" as="geometry" />
        </mxCell>
        <mxCell id="hlVVJkbPb0i9c_7va6b2-2" value="Gestión de Clases" style="whiteSpace=wrap;html=1;" parent="1" vertex="1">
          <mxGeometry x="250" y="62.5" width="140" height="45" as="geometry" />
        </mxCell>
        <mxCell id="hlVVJkbPb0i9c_7va6b2-14" value="" style="edgeStyle=orthogonalEdgeStyle;curved=1;rounded=0;orthogonalLoop=1;jettySize=auto;html=1;" parent="1" source="hlVVJkbPb0i9c_7va6b2-4" target="hlVVJkbPb0i9c_7va6b2-13" edge="1">
          <mxGeometry relative="1" as="geometry" />
        </mxCell>
        <mxCell id="hlVVJkbPb0i9c_7va6b2-4" value="Gestion de Profesores" style="whiteSpace=wrap;html=1;" parent="1" vertex="1">
          <mxGeometry x="250" y="220" width="140" height="40" as="geometry" />
        </mxCell>
        <mxCell id="hlVVJkbPb0i9c_7va6b2-6" value="&lt;ul&gt;&lt;li&gt;CRUD de las clases&lt;/li&gt;&lt;li&gt;Asignar Profesores&lt;/li&gt;&lt;li&gt;Determinar Días y Horarios&lt;/li&gt;&lt;li&gt;&lt;span style=&quot;background-color: initial;&quot;&gt;Cupo de alumnos por clase&lt;/span&gt;&lt;/li&gt;&lt;li&gt;&lt;span style=&quot;background-color: initial;&quot;&gt;Precio de la clase&lt;/span&gt;&lt;/li&gt;&lt;li&gt;Disciplina (GAP, Funcional, Localizada)&lt;/li&gt;&lt;/ul&gt;" style="whiteSpace=wrap;html=1;align=left;" parent="1" vertex="1">
          <mxGeometry x="441" y="30" width="270" height="110" as="geometry" />
        </mxCell>
        <mxCell id="hlVVJkbPb0i9c_7va6b2-12" value="" style="edgeStyle=orthogonalEdgeStyle;curved=1;rounded=0;orthogonalLoop=1;jettySize=auto;html=1;" parent="1" source="hlVVJkbPb0i9c_7va6b2-9" target="hlVVJkbPb0i9c_7va6b2-11" edge="1">
          <mxGeometry relative="1" as="geometry" />
        </mxCell>
        <mxCell id="hlVVJkbPb0i9c_7va6b2-9" value="Gestion de Disciplinas" style="whiteSpace=wrap;html=1;" parent="1" vertex="1">
          <mxGeometry x="250" y="150" width="140" height="40" as="geometry" />
        </mxCell>
        <mxCell id="hlVVJkbPb0i9c_7va6b2-11" value="CRUD Disciplinas" style="whiteSpace=wrap;html=1;" parent="1" vertex="1">
          <mxGeometry x="440" y="150" width="140" height="40" as="geometry" />
        </mxCell>
        <mxCell id="hlVVJkbPb0i9c_7va6b2-13" value="CRUD Profesores" style="whiteSpace=wrap;html=1;" parent="1" vertex="1">
          <mxGeometry x="441" y="220" width="140" height="40" as="geometry" />
        </mxCell>
        <mxCell id="pVDBCByU95Vz9o_DH50R-4" value="" style="edgeStyle=orthogonalEdgeStyle;curved=1;rounded=0;orthogonalLoop=1;jettySize=auto;html=1;" edge="1" parent="1" source="pVDBCByU95Vz9o_DH50R-2" target="pVDBCByU95Vz9o_DH50R-3">
          <mxGeometry relative="1" as="geometry" />
        </mxCell>
        <mxCell id="pVDBCByU95Vz9o_DH50R-2" value="User" style="ellipse;whiteSpace=wrap;html=1;fillColor=#d5e8d4;strokeColor=#82b366;" vertex="1" parent="1">
          <mxGeometry x="100" y="410" width="120" height="80" as="geometry" />
        </mxCell>
        <mxCell id="pVDBCByU95Vz9o_DH50R-3" value="&lt;ul&gt;&lt;li&gt;Regitro y Login&lt;/li&gt;&lt;li&gt;Inscribirse a una clase&lt;/li&gt;&lt;li&gt;Cambiarse de clase&lt;/li&gt;&lt;li&gt;Ver listado de clases&lt;/li&gt;&lt;/ul&gt;" style="whiteSpace=wrap;html=1;align=left;" vertex="1" parent="1">
          <mxGeometry x="280" y="405.63" width="200" height="88.75" as="geometry" />
        </mxCell>
      </root>
    </mxGraphModel>
  </diagram>
</mxfile>
